<?xml version="1.0" encoding="UTF-8"?>
<svg version="1.1" xmlns="http://www.w3.org/2000/svg" width="388" height="432">
<path d="M0 0 C4.55151353 -0.004391 9.10283818 -0.01834234 13.65429688 -0.04101562 C68.63884508 -0.30915681 125.40353867 -0.56519443 169.52270508 37.24023438 C169.52270508 37.90023437 169.52270508 38.56023437 169.52270508 39.24023438 C170.08860352 39.47484375 170.65450195 39.70945313 171.23754883 39.95117188 C189.99085251 50.52995857 202.58709194 80.60013973 208.52270508 100.24023438 C212.1029003 113.64151156 213.76098934 126.61999504 213.77270508 140.49023438 C213.77337982 141.20576477 213.77405457 141.92129517 213.77474976 142.6585083 C213.75764233 154.08914626 213.13620612 165.08140806 210.52270508 176.24023438 C210.35641602 176.97274414 210.19012695 177.70525391 210.01879883 178.45996094 C205.11176955 199.46022883 196.07826382 218.50951609 183.08520508 235.67773438 C182.65997559 236.24024902 182.23474609 236.80276367 181.79663086 237.38232422 C180.75655458 238.71007222 179.6454695 239.98163456 178.52270508 241.24023438 C177.86270508 241.24023438 177.20270508 241.24023438 176.52270508 241.24023438 C176.28165039 241.80484375 176.0405957 242.36945313 175.79223633 242.95117188 C163.92351451 264.35139029 130.39763285 279.35490208 108.24121094 285.84838867 C96.42614103 289.10632341 83.83729683 292.24023438 71.52270508 292.24023438 C72.68396097 288.75646669 73.56035828 288.22514048 76.46020508 286.11523438 C80.99109398 282.72068662 85.1288012 279.02422496 89.26098633 275.15820312 C91.52270508 273.24023438 91.52270508 273.24023438 93.69067383 272.22851562 C96.06016543 270.95030374 96.40619835 269.64812237 97.52270508 267.24023438 C98.66554521 266.00969428 99.85872314 264.82492859 101.08520508 263.67773438 C127.15643148 238.17021017 144.19298728 203.95129508 150.52270508 168.24023438 C150.65193359 167.51852051 150.78116211 166.79680664 150.91430664 166.05322266 C156.76684999 131.14865414 147.85268336 92.046175 127.36401367 63.20019531 C111.68858361 41.82233317 89.63316208 26.95854613 63.20629883 22.67382812 C57.03942823 21.99479193 50.84635234 21.92165791 44.64770508 21.86523438 C43.5063208 21.85113525 42.36493652 21.83703613 41.18896484 21.82250977 C33.00789708 21.86966805 25.2338794 22.45685363 18.52270508 27.49023438 C14.42372069 33.12633791 14.23053485 39.21499258 14.26873779 45.91793823 C14.26561781 46.766948 14.26249783 47.61595778 14.2592833 48.49069512 C14.25133548 51.32248162 14.25761444 54.15405192 14.26391602 56.98583984 C14.26120469 59.02150599 14.25764296 61.05717116 14.2532959 63.09283447 C14.24418539 68.61353385 14.24771098 74.1341584 14.25405407 79.65485907 C14.25912234 85.43756148 14.25442018 91.22025754 14.25128174 97.00296021 C14.24764393 106.71568958 14.25243574 116.42838853 14.26196289 126.14111328 C14.27284094 137.36040846 14.26932581 148.57963092 14.25831008 159.79892433 C14.24922464 169.43904773 14.24795827 179.07914929 14.25318742 188.71927559 C14.25630098 194.47348543 14.25673343 200.22766112 14.25011444 205.98186874 C14.24432356 211.39421988 14.2483698 216.80647759 14.25990295 222.21881866 C14.26254048 224.20171326 14.2618 226.18461576 14.25737762 228.16750717 C14.25188469 230.88129756 14.25880161 233.59479154 14.26873779 236.30856323 C14.26427635 237.08689007 14.25981491 237.8652169 14.25521827 238.6671294 C14.31756256 247.49071501 15.89686725 255.27114875 21.52270508 262.24023438 C26.09549907 266.58438867 31.39091821 267.29180365 37.40161133 268.43164062 C40.66672617 268.52644425 40.66672617 268.52644425 43.15551758 266.18945312 C45.64657329 263.08591011 47.82771786 259.91762943 49.83520508 256.49023438 C50.219104 255.83829102 50.60300293 255.18634766 50.99853516 254.51464844 C66.25496446 228.12074363 77.27037152 195.07811434 70.33520508 164.36523438 C67.23787397 154.54021197 62.6189765 144.91239787 53.54614258 139.44726562 C47.87313196 136.54174559 42.85164252 134.24219655 36.44848633 133.95898438 C35.69889648 133.92160156 34.94930664 133.88421875 34.17700195 133.84570312 C32.60410892 133.77486391 31.03119173 133.70455917 29.45825195 133.63476562 C23.62480784 133.34233714 23.62480784 133.34233714 22.52270508 132.24023438 C22.43415347 129.57397407 22.40745835 126.93376323 22.42504883 124.26757812 C22.42646378 123.46993546 22.42787872 122.67229279 22.42933655 121.85047913 C22.43495191 119.29286002 22.44750696 116.7353272 22.46020508 114.17773438 C22.4652181 112.44791793 22.46978135 110.71810011 22.47387695 108.98828125 C22.48492633 104.73889885 22.50220121 100.48958126 22.52270508 96.24023438 C23.80426804 95.58798026 25.0871571 94.93833122 26.37060547 94.28979492 C27.08487198 93.9277446 27.79913849 93.56569427 28.53504944 93.19267273 C44.01134024 85.77679412 66.17937157 88.44549333 81.99145508 93.30664062 C84.93124391 94.47868802 87.71280379 95.78546279 90.52270508 97.24023438 C91.50368164 97.72105469 92.4846582 98.201875 93.49536133 98.69726562 C111.96593123 108.49262592 123.9167505 126.66631852 130.15991211 146.23779297 C137.98338287 172.58238612 133.67742211 200.03215015 121.08984375 224.05834961 C111.11364153 242.40143869 96.61374238 258.83640961 80.83520508 272.45507812 C76.55647534 276.18500148 72.40090263 280.03251478 68.27270508 283.92773438 C67.1668103 284.96885376 67.1668103 284.96885376 66.03857422 286.03100586 C61.09751674 290.70140874 56.26009659 295.45972486 51.48413086 300.2980957 C48.95467879 302.84899865 46.38674458 305.2913756 43.64770508 307.61523438 C37.80688836 312.58116082 32.51847488 318.16201846 27.13500977 323.61206055 C25.27075266 325.49466664 23.39729916 327.36792639 21.52270508 329.24023438 C80.42442001 329.77339291 141.90251578 325.37222329 187.52270508 283.24023438 C188.87496299 282.11294076 190.22891885 280.98767815 191.58520508 279.86523438 C227.30721102 248.19572491 244.50043108 201.93013074 247.52270508 155.24023438 C249.82222326 107.98278925 232.38881541 61.67020538 201.52270508 26.24023438 C200.20314002 24.8932735 198.87409459 23.55526363 197.52270508 22.24023438 C198.18270508 21.91023438 198.84270508 21.58023438 199.52270508 21.24023438 C237.82113779 41.0213474 265.2429433 81.93243029 278.33520508 122.05273438 C294.30704338 173.06861178 289.84533368 230.73039761 265.71411133 278.32617188 C255.74518767 297.23749197 242.1367876 314.63694424 226.52270508 329.24023438 C225.86270508 329.24023438 225.20270508 329.24023438 224.52270508 329.24023438 C224.52270508 329.90023438 224.52270508 330.56023437 224.52270508 331.24023438 C212.48166243 342.83916531 197.25722784 352.50037587 182.52270508 360.24023438 C181.4837207 360.79839844 180.44473633 361.3565625 179.37426758 361.93164062 C160.37267335 371.4767305 138.53924464 378.19228112 117.52270508 381.24023438 C116.41282227 381.40144775 116.41282227 381.40144775 115.28051758 381.56591797 C100.7804757 383.59147206 86.24243251 384.39797576 71.61083984 384.35375977 C70.31142456 384.35390579 69.01200928 384.35405182 67.67321777 384.35420227 C64.16387296 384.35448518 60.65456344 384.34867164 57.14522672 384.34162831 C53.45773585 384.33530921 49.77024386 384.33478429 46.08274841 384.33360291 C39.12400271 384.33051452 32.16527303 384.32233528 25.20653433 384.31225342 C17.27405426 384.30101417 9.34157337 384.29556228 1.4090873 384.29055798 C-14.88638276 384.28015013 -31.18183679 384.26259978 -47.47729492 384.24023438 C-47.58566163 381.50999548 -47.66476187 378.78408895 -47.72729492 376.05273438 C-47.76081055 375.28380859 -47.79432617 374.51488281 -47.82885742 373.72265625 C-47.89827562 369.67904616 -47.77300002 367.71739487 -45.58666992 364.18945312 C-43.47729492 362.24023438 -43.47729492 362.24023438 -41.47729492 362.24023438 C-41.09577271 361.36866699 -41.09577271 361.36866699 -40.70654297 360.47949219 C-39.34455997 357.99843795 -37.83415052 356.38505334 -35.80932617 354.41210938 C-34.71587891 353.33509766 -34.71587891 353.33509766 -33.6003418 352.23632812 C-32.83786133 351.49511719 -32.07538086 350.75390625 -31.28979492 349.99023438 C-26.33507471 345.1515397 -21.5469417 340.27666551 -17.03369141 335.02148438 C-14.99624424 332.68968601 -12.8217051 330.52320759 -10.60229492 328.36523438 C-7.64964002 325.5863052 -7.64964002 325.5863052 -5.47729492 322.24023438 C-4.81729492 322.24023438 -4.15729492 322.24023438 -3.47729492 322.24023438 C-3.25428711 321.68851562 -3.0312793 321.13679688 -2.80151367 320.56835938 C-1.06175396 317.50966678 1.18034989 315.43285317 3.71020508 312.99023438 C9.19384001 307.62752246 14.21944856 302.00607545 19.12475586 296.1184082 C19.9160791 295.16861084 20.70740234 294.21881348 21.52270508 293.24023438 C20.23453384 293.22992691 18.94636261 293.21961945 17.61915588 293.20899963 C5.50803044 293.11144864 -6.60304151 293.00873243 -18.71407986 292.90089512 C-24.94120406 292.84561624 -31.16833292 292.79218845 -37.39550781 292.74291992 C-43.39960534 292.69534943 -49.4036437 292.64300956 -55.40767097 292.58729362 C-57.70389403 292.56683681 -60.00013333 292.54812937 -62.29638481 292.53116035 C-65.50054706 292.50718973 -68.70459632 292.4771255 -71.90869141 292.44555664 C-72.8682222 292.43980118 -73.82775299 292.43404572 -74.81636047 292.42811584 C-75.68439301 292.41832703 -76.55242554 292.40853821 -77.44676208 292.39845276 C-78.58471552 292.38877393 -78.58471552 292.38877393 -79.74565792 292.37889957 C-81.47729492 292.24023438 -81.47729492 292.24023438 -82.47729492 291.24023438 C-82.76935593 288.79459224 -82.9925986 286.38210593 -83.16479492 283.92773438 C-83.22473633 283.25033203 -83.28467773 282.57292969 -83.34643555 281.875 C-83.54318039 279.11787705 -83.53320925 276.54876164 -83.03979492 273.82617188 C-80.31021732 271.05565061 -76.48486007 271.39820366 -72.78979492 271.17773438 C-66.66227957 270.77322847 -62.02860752 269.92477064 -56.47729492 267.24023438 C-55.54916992 266.95148438 -54.62104492 266.66273438 -53.66479492 266.36523438 C-51.26708122 265.40452301 -51.26708122 265.40452301 -50.28979492 262.86523438 C-50.02166992 261.99898438 -49.75354492 261.13273437 -49.47729492 260.24023438 C-49.12666992 259.60085938 -48.77604492 258.96148437 -48.41479492 258.30273438 C-46.04570977 253.09074704 -46.33249999 247.30729625 -46.34358215 241.68951416 C-46.34018382 240.41833949 -46.34018382 240.41833949 -46.33671683 239.12148452 C-46.33039955 236.28898353 -46.33120474 233.45653068 -46.33203125 230.62402344 C-46.32903832 228.59012795 -46.32563548 226.55623304 -46.32185364 224.52233887 C-46.31302248 219.0015346 -46.31067588 213.48074584 -46.31003785 207.95993519 C-46.30932678 204.50878806 -46.30719135 201.05764487 -46.30454063 197.60649872 C-46.29528971 185.56090546 -46.29120538 173.51532326 -46.29199219 161.46972656 C-46.29259272 150.25104492 -46.28204509 139.03241139 -46.26624852 127.81374192 C-46.25316075 118.17447631 -46.24780882 108.53522641 -46.2484476 98.89595199 C-46.24870225 93.14224922 -46.24586932 87.38858922 -46.23526955 81.63489532 C-46.22556793 76.22092044 -46.22552356 70.80702902 -46.23278618 65.39305115 C-46.23382949 63.41057462 -46.23148421 61.42809285 -46.22542572 59.44562531 C-45.32712349 42.40246808 -45.32712349 42.40246808 -51.47729492 27.24023438 C-56.64935798 23.79437188 -60.70848577 22.55623255 -66.85229492 22.05273438 C-74.38295995 21.33456935 -74.38295995 21.33456935 -75.47729492 20.24023438 C-75.56381103 18.82453314 -75.58434396 17.40463937 -75.57495117 15.98632812 C-75.57245361 15.21732178 -75.56995605 14.44831543 -75.56738281 13.65600586 C-75.55372681 12.18176147 -75.55372681 12.18176147 -75.53979492 10.67773438 C-75.52830634 8.99422429 -75.51718012 7.3107117 -75.50634766 5.62719727 C-75.49666341 4.1648763 -75.48697917 2.70255534 -75.47729492 1.24023438 C-50.3228986 0.1526687 -25.17465079 0.02057518 0 0 Z " fill="#060606" transform="translate(86.477294921875,30.759765625)"/>
<path d="M0 0 C6.26418531 1.48362284 10.91513505 5.24162156 16 9 C15.67 9.99 15.34 10.98 15 12 C14.34 12 13.68 12 13 12 C13.33 13.32 13.66 14.64 14 16 C10.40607398 12.50875758 7.20378394 8.86097039 4 5 C3.236875 4.236875 2.47375 3.47375 1.6875 2.6875 C1.130625 2.130625 0.57375 1.57375 0 1 C0 0.67 0 0.34 0 0 Z " fill="#5C5C5C" transform="translate(284,52)"/>
<path d="M0 0 C0.33 0 0.66 0 1 0 C1.33 11.55 1.66 23.1 2 35 C5.63 35 9.26 35 13 35 C13.66 35.66 14.32 36.32 15 37 C12.68756208 37.02685412 10.3750373 37.04632841 8.0625 37.0625 C6.77472656 37.07410156 5.48695312 37.08570313 4.16015625 37.09765625 C1 37 1 37 0 36 C-0.08855161 33.3337397 -0.11524673 30.69352886 -0.09765625 28.02734375 C-0.0962413 27.22970108 -0.09482635 26.43205841 -0.09336853 25.61024475 C-0.08775316 23.05262565 -0.07519812 20.49509282 -0.0625 17.9375 C-0.05748698 16.20768355 -0.05292373 14.47786574 -0.04882812 12.74804688 C-0.03777875 8.49866447 -0.02050386 4.24934688 0 0 Z " fill="#A3A3A3" transform="translate(109,127)"/>
<path d="M0 0 C0.66 0.66 1.32 1.32 2 2 C1.67 2.99 1.34 3.98 1 5 C0.01 5.33 -0.98 5.66 -2 6 C-3.58509851 7.72458718 -4.97553847 9.54950073 -6.40234375 11.40625 C-8.23646622 13.23588806 -9.47457033 13.6072766 -12 14 C-10.625 11.5 -10.625 11.5 -9 9 C-8.34 9 -7.68 9 -7 9 C-6.773125 8.443125 -6.54625 7.88625 -6.3125 7.3125 C-4.64103234 4.36753316 -2.44723648 2.31843456 0 0 Z " fill="#474747" transform="translate(52,384)"/>
<path d="M0 0 C0.66 0.33 1.32 0.66 2 1 C-0.2375915 3.32478781 -2.49204232 5.63250154 -4.75 7.9375 C-5.70132812 8.9265332 -5.70132812 8.9265332 -6.671875 9.93554688 C-7.6 10.87817383 -7.6 10.87817383 -8.546875 11.83984375 C-9.39523926 12.71177368 -9.39523926 12.71177368 -10.26074219 13.60131836 C-12.17525154 15.14093431 -13.59987554 15.59308235 -16 16 C-12.21309138 11.36103694 -8.30424428 7.3506875 -3.734375 3.48046875 C-1.91019463 1.96268408 -1.91019463 1.96268408 0 0 Z " fill="#535353" transform="translate(287,302)"/>
<path d="M0 0 C0.33 0.66 0.66 1.32 1 2 C-6.29840547 10.44646925 -6.29840547 10.44646925 -10 14 C-10.66 13.67 -11.32 13.34 -12 13 C-10.88200014 11.66079162 -9.75538103 10.32877444 -8.625 9 C-7.99851562 8.2575 -7.37203125 7.515 -6.7265625 6.75 C-6.15679687 6.1725 -5.58703125 5.595 -5 5 C-4.34 5 -3.68 5 -3 5 C-2.690625 4.360625 -2.38125 3.72125 -2.0625 3.0625 C-1 1 -1 1 0 0 Z " fill="#4E4E4E" transform="translate(86,348)"/>
<path d="M0 0 C0.66 0.33 1.32 0.66 2 1 C1.34 1.66 0.68 2.32 0 3 C2.97 3.495 2.97 3.495 6 4 C6 4.33 6 4.66 6 5 C2.37 5.33 -1.26 5.66 -5 6 C-3.86695008 2.60085025 -2.87481525 1.94745549 0 0 Z " fill="#797979" transform="translate(163,317)"/>
<path d="M0 0 C1.65 0 3.3 0 5 0 C4.67 0.99 4.34 1.98 4 3 C3.34 3 2.68 3 2 3 C2.33 4.32 2.66 5.64 3 7 C1.68 5.68 0.36 4.36 -1 3 C-0.67 2.01 -0.34 1.02 0 0 Z " fill="#323232" transform="translate(295,61)"/>
<path d="M0 0 C0.66 0.33 1.32 0.66 2 1 C-3.75 6 -3.75 6 -6 6 C-6.33 6.66 -6.66 7.32 -7 8 C-7.33 7.01 -7.66 6.02 -8 5 C-6.71475739 4.13619741 -5.42157581 3.28419631 -4.125 2.4375 C-3.04605469 1.72400391 -3.04605469 1.72400391 -1.9453125 0.99609375 C-1.30335938 0.66738281 -0.66140625 0.33867187 0 0 Z " fill="#565656" transform="translate(254,329)"/>
<path d="" fill="#FFFFFF" transform="translate(0,0)"/>
</svg>
